<?xml version="1.0" encoding="utf-8"?>
<!-- Generator: Adobe Illustrator 22.1.0, SVG Export Plug-In . SVG Version: 6.00 Build 0)  -->
<svg version="1.1" id="Capa_1" xmlns="http://www.w3.org/2000/svg" xmlns:xlink="http://www.w3.org/1999/xlink" x="0px" y="0px"
	 viewBox="0 0 496 496" style="enable-background:new 0 0 496 496;" xml:space="preserve">
<style type="text/css">
	.st0{fill:#50556B;}
</style>
<g>
	<g>
		<path class="st0" d="M432,112V0H0v456c0,22.1,17.9,40,40,40h416c22.1,0,40-17.9,40-40V112H432z M40,480c-13.2,0-24-10.8-24-24V16
			h400v96v40v304c0,9,3.1,17.3,8.2,24H40z M480,456c0,13.2-10.8,24-24,24s-24-10.8-24-24V152v-24h48V456z"/>
	</g>
</g>
<g>
	<g>
		<path class="st0" d="M144,128c-8.8,0-16-7.2-16-16s7.2-16,16-16s16,7.2,16,16h16c0-14.9-10.2-27.3-24-30.9V64h-16v17.1
			c-13.8,3.6-24,16-24,30.9c0,17.6,14.4,32,32,32c8.8,0,16,7.2,16,16s-7.2,16-16,16s-16-7.2-16-16h-16c0,14.9,10.2,27.3,24,30.9V208
			h16v-17.1c13.8-3.6,24-16,24-30.9C176,142.4,161.6,128,144,128z"/>
	</g>
</g>
<g>
	<g>
		<path class="st0" d="M32,32v208h224V32H32z M240,224H48V48h192V224z"/>
	</g>
</g>
<g>
	<g>
		<path class="st0" d="M384,448V320h-48v128h-32v-96h-48v96h-32V320h-48v128h-16v16h240v-16H384z M208,448h-16V336h16V448z M288,448
			h-16v-80h16V448z M368,448h-16V336h16V448z"/>
	</g>
</g>
<g>
	<g>
		<rect x="272" y="32" class="st0" width="128" height="16"/>
	</g>
</g>
<g>
	<g>
		<rect x="272" y="64" class="st0" width="128" height="16"/>
	</g>
</g>
<g>
	<g>
		<rect x="272" y="96" class="st0" width="128" height="16"/>
	</g>
</g>
<g>
	<g>
		<rect x="272" y="128" class="st0" width="128" height="16"/>
	</g>
</g>
<g>
	<g>
		<rect x="272" y="160" class="st0" width="96" height="16"/>
	</g>
</g>
<g>
	<g>
		<rect x="384" y="160" class="st0" width="16" height="16"/>
	</g>
</g>
<g>
	<g>
		<rect x="32" y="256" class="st0" width="128" height="16"/>
	</g>
</g>
<g>
	<g>
		<rect x="32" y="288" class="st0" width="128" height="16"/>
	</g>
</g>
<g>
	<g>
		<rect x="32" y="320" class="st0" width="128" height="16"/>
	</g>
</g>
<g>
	<g>
		<rect x="32" y="352" class="st0" width="128" height="16"/>
	</g>
</g>
<g>
	<g>
		<rect x="144" y="384" class="st0" width="16" height="16"/>
	</g>
</g>
<g>
	<g>
		<rect x="32" y="384" class="st0" width="96" height="16"/>
	</g>
</g>
<g>
	<g>
		<path class="st0" d="M360,256c-13.2,0-24,10.8-24,24c0,0.3,0.1,0.6,0.1,0.9l-38.2,15.3c-4.4-5-10.8-8.2-17.9-8.2
			s-13.5,3.2-17.9,8.2l-38.2-15.3c0-0.3,0.1-0.6,0.1-0.9c0-13.2-10.8-24-24-24s-24,10.8-24,24s10.8,24,24,24
			c7.2,0,13.5-3.2,17.9-8.2l38.2,15.3c0,0.3-0.1,0.6-0.1,1c0,13.2,10.8,24,24,24s24-10.8,24-24c0-0.3-0.1-0.6-0.1-0.9l38.2-15.3
			c4.4,5,10.8,8.2,17.9,8.2c13.2,0,24-10.8,24-24S373.2,256,360,256z M200,288c-4.4,0-8-3.6-8-8s3.6-8,8-8s8,3.6,8,8
			S204.4,288,200,288z M280,320c-4.4,0-8-3.6-8-8s3.6-8,8-8s8,3.6,8,8S284.4,320,280,320z M360,288c-4.4,0-8-3.6-8-8s3.6-8,8-8
			s8,3.6,8,8S364.4,288,360,288z"/>
	</g>
</g>
<g>
	<g>
		<rect x="192" y="128" class="st0" width="16" height="16"/>
	</g>
</g>
<g>
	<g>
		<rect x="80" y="128" class="st0" width="16" height="16"/>
	</g>
</g>
</svg>
