<?xml version="1.0" encoding="utf-8"?>
<!-- Generator: Adobe Illustrator 22.1.0, SVG Export Plug-In . SVG Version: 6.00 Build 0)  -->
<svg version="1.1" id="Layer_1" xmlns="http://www.w3.org/2000/svg" xmlns:xlink="http://www.w3.org/1999/xlink" x="0px" y="0px"
	 viewBox="0 0 512 512" style="enable-background:new 0 0 512 512;" xml:space="preserve">
<style type="text/css">
	.st0{fill:#50556B;}
</style>
<g id="surface1">
	<path class="st0" d="M404.4,430c-13.8-0.2-23.1-7.7-23.1-13.1c0-2.7,2.3-6.3,5.1-6.3c3.7,0,6.7,7.8,18,8.7v-26.1
		c-10-3.6-21.1-7.6-21.1-21.8c0-14,10.5-19.5,21.1-20.6v-3.2c0-1.3,1.3-2.6,3.2-2.6c1.7,0,3.3,1.2,3.3,2.6v3
		c7.6,0.2,18.2,2.6,18.2,8c0,2.1-1.6,6.3-4.9,6.3c-2.7,0-5.6-3.6-13.3-4.1v22.5c9.7,3.6,20.2,8.4,20.2,23.5
		c0,13.7-8.2,21.2-20.2,22.9v3.8c0,1.3-1.7,2.6-3.3,2.6c-1.9,0-3.2-1.2-3.2-2.6L404.4,430L404.4,430z M405,381.1v-20.2
		c-6.2,0.8-10.7,3.6-10.7,9.3C394.4,376.6,399.1,378.9,405,381.1z M410.2,395.6V419c6-1.1,9.8-4.7,9.8-11
		C420,401,415.7,397.9,410.2,395.6z"/>
	<path class="st0" d="M241.1,123.1c4.1,0,7.5-3.4,7.5-7.5V95.9c0-4.1-3.4-7.5-7.5-7.5c-4.1,0-7.5,3.4-7.5,7.5v19.7
		C233.6,119.7,236.9,123.1,241.1,123.1z"/>
	<path class="st0" d="M233.6,397.7v19.7c0,4.1,3.4,7.5,7.5,7.5c4.1,0,7.5-3.4,7.5-7.5v-19.7c0-4.1-3.4-7.5-7.5-7.5
		C236.9,390.2,233.6,393.6,233.6,397.7z"/>
	<path class="st0" d="M382.2,249.1c-4.1,0-7.5,3.4-7.5,7.5c0,4.1,3.4,7.5,7.5,7.5h19.7c4.1,0,7.5-3.4,7.5-7.5c0-4.1-3.4-7.5-7.5-7.5
		H382.2z"/>
	<path class="st0" d="M80.3,249.1c-4.1,0-7.5,3.4-7.5,7.5c0,4.1,3.4,7.5,7.5,7.5H100c4.1,0,7.5-3.4,7.5-7.5c0-4.1-3.4-7.5-7.5-7.5
		H80.3z"/>
	<path class="st0" d="M342.5,144.6l-7,7c-2.9,2.9-2.9,7.7,0,10.6c1.5,1.5,3.4,2.2,5.3,2.2c1.9,0,3.8-0.7,5.3-2.2l7-7
		c2.9-2.9,2.9-7.7,0-10.6C350.2,141.7,345.4,141.7,342.5,144.6z"/>
	<path class="st0" d="M136,351.1l-7,7c-2.9,2.9-2.9,7.7,0,10.6c1.5,1.5,3.4,2.2,5.3,2.2c1.9,0,3.8-0.7,5.3-2.2l7-7
		c2.9-2.9,2.9-7.7,0-10.6S139,348.2,136,351.1z"/>
	<path class="st0" d="M146.6,151.6l-7-7c-2.9-2.9-7.7-2.9-10.6,0c-2.9,2.9-2.9,7.7,0,10.6l7,7c1.5,1.5,3.4,2.2,5.3,2.2
		c1.9,0,3.8-0.7,5.3-2.2C149.6,159.3,149.6,154.5,146.6,151.6z"/>
	<path class="st0" d="M406.2,286.6c-58.4,0-105.8,47.5-105.8,105.8s47.5,105.8,105.8,105.8S512,450.8,512,392.5
		C512,334.1,464.5,286.6,406.2,286.6z M406.2,483.3c-50.1,0-90.8-40.7-90.8-90.8s40.7-90.8,90.8-90.8s90.8,40.7,90.8,90.8
		S456.3,483.3,406.2,483.3z"/>
	<path class="st0" d="M406.2,313.2c-43.7,0-79.2,35.5-79.2,79.2c0,43.7,35.5,79.2,79.2,79.2c43.7,0,79.2-35.5,79.2-79.2
		C485.4,348.8,449.9,313.2,406.2,313.2z M406.2,456.7c-35.4,0-64.2-28.8-64.2-64.2c0-35.4,28.8-64.2,64.2-64.2s64.2,28.8,64.2,64.2
		C470.4,427.9,441.6,456.7,406.2,456.7z"/>
	<path class="st0" d="M438.1,269.2c0.1,0,0.1,0,0.2,0c4.1,0,7.4-3.2,7.5-7.3c0-1.7,0.1-3.5,0.1-5.3c0-112.6-91.6-204.2-204.2-204.2
		S37.5,144.1,37.5,256.6s91.6,204.2,204.2,204.2c14.8,0,29.5-1.6,43.9-4.7c4-0.9,6.6-4.9,5.7-8.9s-4.9-6.6-8.9-5.7
		c-13.3,2.9-26.9,4.4-40.6,4.4c-104.3,0-189.2-84.9-189.2-189.2S137.3,67.5,241.6,67.5s189.2,84.9,189.2,189.2c0,1.6,0,3.3-0.1,4.9
		C430.6,265.7,433.9,269.1,438.1,269.2z"/>
	<path class="st0" d="M303.6,474.7c-20.1,5.7-40.9,8.6-61.9,8.6c-60.5,0-117.5-23.6-160.3-66.4C38.6,374.1,15,317.2,15,256.6
		S38.6,139.2,81.4,96.4S181.1,30,241.6,30s117.5,23.6,160.3,66.4s66.4,99.7,66.4,160.3c0,6.5-0.3,13.1-0.8,19.5
		c-0.4,4.1,2.7,7.8,6.8,8.1c4.1,0.3,7.8-2.7,8.1-6.8c0.6-6.9,0.9-13.8,0.9-20.8c0-64.5-25.1-125.2-70.8-170.9S306.2,15,241.6,15
		S116.4,40.1,70.8,85.8S0,192.1,0,256.6s25.1,125.2,70.8,170.9c45.6,45.6,106.3,70.8,170.9,70.8c22.4,0,44.7-3.1,66-9.1
		c4-1.1,6.3-5.3,5.2-9.3S307.6,473.6,303.6,474.7z"/>
	<path class="st0" d="M296.8,322.9c1.5,1.5,3.4,2.2,5.3,2.2c1.9,0,3.8-0.7,5.3-2.2c2.9-2.9,2.9-7.7,0-10.6l-41.2-41.2
		c2.5-4.3,3.9-9.2,3.9-14.5c0-13.4-9.1-24.7-21.5-28v-78.8c0-4.1-3.4-7.5-7.5-7.5c-4.1,0-7.5,3.4-7.5,7.5v78.8
		c-12.4,3.3-21.5,14.6-21.5,28c0,16,13,29,29,29c5.3,0,10.2-1.4,14.5-3.9L296.8,322.9z M241.1,270.6c-7.7,0-14-6.3-14-14
		s6.3-14,14-14s14,6.3,14,14S248.8,270.6,241.1,270.6z"/>
</g>
</svg>
