<?xml version="1.0" encoding="utf-8"?>
<!-- Generator: Adobe Illustrator 22.1.0, SVG Export Plug-In . SVG Version: 6.00 Build 0)  -->
<svg version="1.1" id="Capa_1" xmlns="http://www.w3.org/2000/svg" xmlns:xlink="http://www.w3.org/1999/xlink" x="0px" y="0px"
	 viewBox="0 0 512 512" style="enable-background:new 0 0 512 512;" xml:space="preserve">
<style type="text/css">
	.st0{fill:#50556B;}
</style>
<g>
	<g>
		<path class="st0" d="M108.5,275.9c4.2,0,7.5-3.4,7.5-7.5v-5.2c0-12-9.2-21.9-20.8-23V232c0-4.2-3.4-7.5-7.5-7.5s-7.5,3.4-7.5,7.5
			v8.6c-11.9,2.3-20.8,12.8-20.8,25.3c0,14.2,11.6,25.8,25.7,25.8h5.2c5.9,0,10.7,4.8,10.7,10.7S96.2,313,90.3,313h-7.8
			c-4.5,0-8.1-3.6-8.1-8.1c0-4.2-3.4-7.5-7.5-7.5s-7.5,3.4-7.5,7.5c0,12,9.2,21.9,20.8,23v8.2c0,4.2,3.4,7.5,7.5,7.5
			s7.5-3.4,7.5-7.5v-8.6c11.9-2.3,20.8-12.8,20.8-25.3c0-14.2-11.6-25.8-25.8-25.8h-5.2c-5.9,0-10.7-4.8-10.7-10.7
			s4.8-10.7,10.7-10.7h7.8c4.5,0,8.1,3.6,8.1,8.1v5.2C101,272.6,104.4,275.9,108.5,275.9z"/>
	</g>
</g>
<g>
	<g>
		<path class="st0" d="M276.8,83.6c4.2,0,7.5-3.4,7.5-7.5v-5.2c0-12-9.2-21.9-20.8-23v-8.2c0-4.2-3.4-7.5-7.5-7.5
			c-4.1,0-7.5,3.4-7.5,7.5v8.6c-11.9,2.3-20.8,12.8-20.8,25.3c0,14.2,11.6,25.8,25.8,25.8h5.2c5.9,0,10.7,4.8,10.7,10.7
			s-4.8,10.7-10.7,10.7h-7.8c-4.5,0-8.1-3.6-8.1-8.1c0-4.2-3.4-7.5-7.5-7.5s-7.5,3.4-7.5,7.5c0,12,9.2,21.9,20.8,23v8.2
			c0,4.2,3.4,7.5,7.5,7.5c4.2,0,7.5-3.4,7.5-7.5v-8.6c11.9-2.3,20.8-12.8,20.8-25.3c0-14.2-11.6-25.8-25.8-25.8h-5.2
			c-5.9,0-10.7-4.8-10.7-10.7s4.8-10.7,10.7-10.7h7.8c4.5,0,8.1,3.6,8.1,8.1V76C269.3,80.2,272.7,83.6,276.8,83.6z"/>
	</g>
</g>
<g>
	<g>
		<path class="st0" d="M424.3,148.3c-21.7,0-41.6,7.9-57,21.1l-37.2-31c8.5-13.5,13.5-29.5,13.5-46.7C343.7,43.3,304.3,4,256,4
			s-87.7,39.3-87.7,87.7c0,25.4,10.8,48.2,28.1,64.3l-61.3,54.5c-13.7-8.9-30-14-47.5-14C39.3,196.4,0,235.7,0,284.1
			s39.3,87.7,87.7,87.7s87.7-39.3,87.7-87.7c0-25.4-10.8-48.2-28.1-64.3l61.3-54.5c13.7,8.9,30,14,47.5,14c25.8,0,49-11.2,65.1-29
			l35.7,29.8c-12.6,15.2-20.1,34.6-20.1,55.8c0,48.3,39.3,87.7,87.7,87.7S512,284.3,512,236S472.7,148.3,424.3,148.3z M160.3,284.1
			c0,40.1-32.6,72.6-72.6,72.6S15,324.1,15,284.1s32.6-72.6,72.6-72.6S160.3,244,160.3,284.1z M256,164.3
			c-40.1,0-72.6-32.6-72.6-72.6S215.9,19,256,19s72.6,32.6,72.6,72.6S296.1,164.3,256,164.3z M424.3,308.6
			c-40.1,0-72.6-32.6-72.6-72.6c0-18.9,7.3-36.1,19.1-49.1c1.2-0.4,2.3-1.2,3.2-2.2c0.6-0.7,1-1.4,1.3-2.2
			c12.9-11.9,30.2-19.1,49.1-19.1c40.1,0,72.6,32.6,72.6,72.6C497,276,464.4,308.6,424.3,308.6z"/>
	</g>
</g>
<g>
	<g>
		<path class="st0" d="M445.2,227.8c4.2,0,7.5-3.4,7.5-7.5v-5.2c0-12-9.2-21.9-20.8-23v-8.2c0-4.2-3.4-7.5-7.5-7.5s-7.5,3.4-7.5,7.5
			v8.6c-11.9,2.3-20.8,12.8-20.8,25.3c0,14.2,11.6,25.8,25.8,25.8h5.2c5.9,0,10.7,4.8,10.7,10.7s-4.8,10.7-10.7,10.7h-7.8
			c-4.5,0-8.1-3.6-8.1-8.1c0-4.2-3.4-7.5-7.5-7.5s-7.5,3.4-7.5,7.5c0,12,9.2,21.9,20.8,23v8.2c0,4.2,3.4,7.5,7.5,7.5
			s7.5-3.4,7.5-7.5v-8.6c11.9-2.3,20.8-12.8,20.8-25.3c0-14.2-11.6-25.8-25.8-25.8h-5.2c-5.9,0-10.7-4.8-10.7-10.7
			s4.8-10.7,10.7-10.7h7.8c4.5,0,8.1,3.6,8.1,8.1v5.2C437.7,224.5,441,227.8,445.2,227.8z"/>
	</g>
</g>
<g>
	<g>
		<path class="st0" d="M159.8,396.8H95.7c-4.2,0-7.5,3.4-7.5,7.5v96.2c0,4.2,3.4,7.5,7.5,7.5h64.1c4.1,0,7.5-3.4,7.5-7.5v-96.2
			C167.3,400.1,164,396.8,159.8,396.8z M152.3,493h-49.1v-81.2h49.1V493z"/>
	</g>
</g>
<g>
	<g>
		<path class="st0" d="M472.4,396.8h-64.1c-4.2,0-7.5,3.4-7.5,7.5v96.2c0,4.2,3.4,7.5,7.5,7.5h64.1c4.2,0,7.5-3.4,7.5-7.5v-96.2
			C479.9,400.1,476.6,396.8,472.4,396.8z M464.9,493h-49.1v-81.2h49.1V493z"/>
	</g>
</g>
<g>
	<g>
		<path class="st0" d="M264,428.3c4.2,0,7.5-3.4,7.5-7.5V308.1c0-4.2-3.4-7.5-7.5-7.5h-64.1c-4.1,0-7.5,3.4-7.5,7.5v192.4
			c0,4.2,3.4,7.5,7.5,7.5H264c4.2,0,7.5-3.4,7.5-7.5v-44.6c0-4.2-3.4-7.5-7.5-7.5s-7.5,3.4-7.5,7.5V493h-49.1V315.6h49.1v105.2
			C256.5,425,259.9,428.3,264,428.3z"/>
	</g>
</g>
<g>
	<g>
		<path class="st0" d="M368.2,348.7h-64.1c-4.2,0-7.5,3.4-7.5,7.5v144.3c0,4.2,3.4,7.5,7.5,7.5h64.1c4.2,0,7.5-3.4,7.5-7.5V356.2
			C375.7,352,372.4,348.7,368.2,348.7z M360.7,493h-49.1V363.7h49.1V493z"/>
	</g>
</g>
</svg>
