<?xml version="1.0" encoding="utf-8"?>
<!-- Generator: Adobe Illustrator 22.1.0, SVG Export Plug-In . SVG Version: 6.00 Build 0)  -->
<svg version="1.1" id="Capa_1" xmlns="http://www.w3.org/2000/svg" xmlns:xlink="http://www.w3.org/1999/xlink" x="0px" y="0px"
	 viewBox="0 0 512 512" style="enable-background:new 0 0 512 512;" xml:space="preserve">
<style type="text/css">
	.st0{fill:#50556B;}
</style>
<g>
	<g>
		<path class="st0" d="M437,75C388.7,26.6,324.4,0,256,0S123.3,26.6,75,75C32.9,117.1,6.7,172.8,1.1,231.9
			c-5.5,58.4,9.3,117.2,41.6,165.7c3.1,4.6,9.3,5.8,13.9,2.8c4.6-3.1,5.8-9.3,2.8-13.9c-62-93.1-49.5-218.2,29.8-297.5
			c92-92,241.7-92,333.8,0C467.4,133.7,492,193,492,256s-24.5,122.3-69.1,166.9c-82.4,82.4-210.7,92.8-305,24.5
			c-4.5-3.2-10.7-2.2-14,2.2c-3.2,4.5-2.2,10.7,2.2,14c43.6,31.5,96.2,48.4,149.9,48.4c6.4,0,12.8-0.2,19.2-0.7
			c61-4.6,118.4-31,161.7-74.3c48.4-48.4,75-112.6,75-181S485.4,123.3,437,75z"/>
	</g>
</g>
<g>
	<g>
		<path class="st0" d="M399.2,113.5l-0.4-0.4c-3.9-3.9-10.2-3.9-14.1-0.1c-3.9,3.9-3.9,10.2-0.1,14.1l0.4,0.4c2,2,4.5,3,7.1,3
			c2.5,0,5.1-1,7-2.9C403.1,123.8,403.1,117.5,399.2,113.5z"/>
	</g>
</g>
<g>
	<g>
		<path class="st0" d="M429.4,152.4c-2.8-4.7-9-6.3-13.7-3.4c-4.7,2.8-6.3,9-3.4,13.7c42.9,71.6,31.5,162.9-27.6,222
			c-71,71-186.4,71-257.4,0c-71-71-71-186.4,0-257.4c59.1-59.1,150.3-70.4,222-27.6c4.7,2.8,10.9,1.3,13.7-3.5
			c2.8-4.7,1.3-10.9-3.5-13.7c-37.9-22.7-83.1-32.3-127.2-27.1c-45.5,5.3-86.7,25.3-119.1,57.8c-78.8,78.8-78.8,206.9,0,285.7
			c39.4,39.4,91.1,59.1,142.8,59.1s103.5-19.7,142.8-59.1c32.5-32.5,52.5-73.7,57.8-119.2C461.8,235.5,452.1,190.3,429.4,152.4z"/>
	</g>
</g>
<g>
	<g>
		<path class="st0" d="M352,209.3c0-40.4-32-73.5-72-75.2V112c0-5.5-4.5-10-10-10s-10,4.5-10,10v22h-32v-22c0-5.5-4.5-10-10-10
			s-10,4.5-10,10v22h-38c-5.5,0-10,4.5-10,10v40c0,5.5,4.5,10,10,10h14v124h-14c-5.5,0-10,4.5-10,10v40c0,5.5,4.5,10,10,10h38v22
			c0,5.5,4.5,10,10,10s10-4.5,10-10v-22h32v22c0,5.5,4.5,10,10,10s10-4.5,10-10v-22.1c40-1.8,72-34.8,72-75.2
			c0-17.2-5.7-33.4-16.2-46.7C346.3,242.7,352,226.5,352,209.3z M276.7,358H180v-20h14c5.5,0,10-4.5,10-10V184c0-5.5-4.5-10-10-10
			h-14v-20h96.7c30.5,0,55.3,24.8,55.3,55.3c0,15-5.9,29-16.7,39.5c-1.9,1.9-3,4.5-3,7.1s1.1,5.3,3,7.1
			c10.7,10.5,16.7,24.6,16.7,39.5C332,333.2,307.2,358,276.7,358z"/>
	</g>
</g>
<g>
	<g>
		<path class="st0" d="M274.9,171.3H231c-5.5,0-10,4.5-10,10v56c0,5.5,4.5,10,10,10h43.9c21,0,38-17,38-38S295.9,171.3,274.9,171.3z
			 M274.9,227.3H241v-36h33.9c9.9,0,18,8.1,18,18S284.9,227.3,274.9,227.3z"/>
	</g>
</g>
<g>
	<g>
		<path class="st0" d="M274.9,264.7H231c-5.5,0-10,4.5-10,10v56c0,5.5,4.5,10,10,10h43.9c21,0,38-17,38-38S295.9,264.7,274.9,264.7z
			 M274.9,320.7H241v-36h33.9c9.9,0,18,8.1,18,18S284.9,320.7,274.9,320.7z"/>
	</g>
</g>
<g>
	<g>
		<path class="st0" d="M89.5,421.7l-0.4-0.4c-3.9-3.9-10.2-3.9-14.1-0.1c-3.9,3.9-3.9,10.2-0.1,14.1l0.4,0.4c2,2,4.5,3,7.1,3
			c2.5,0,5.1-1,7-2.9C93.4,431.9,93.4,425.6,89.5,421.7z"/>
	</g>
</g>
</svg>
