<?xml version="1.0" encoding="utf-8"?>
<!-- Generator: Adobe Illustrator 22.1.0, SVG Export Plug-In . SVG Version: 6.00 Build 0)  -->
<svg version="1.1" id="Layer_1" xmlns="http://www.w3.org/2000/svg" xmlns:xlink="http://www.w3.org/1999/xlink" x="0px" y="0px"
	 viewBox="0 0 512 512" style="enable-background:new 0 0 512 512;" xml:space="preserve">
<style type="text/css">
	.st0{fill:#50556B;}
</style>
<g>
	<g>
		<path class="st0" d="M465.4,48.2H327.8V24c0-13.2-10.7-24-23.9-24h-95.8c-13.2,0-23.9,10.7-23.9,24v24.3H46.6c-6.7,0-12,5.4-12,12
			s5.4,12,12,12h22.3l15.2,396.4c0.9,24.3,20.7,43.3,45,43.3h253.8c24.3,0,44-19,45-43.3l15.2-396.4h22.3c6.7,0,12-5.4,12-12
			C477.5,53.6,472.1,48.2,465.4,48.2z M208.3,24.1h95.4v24.1h-95.4V24.1z M403.8,467.8c-0.4,11.3-9.6,20.1-20.9,20.1H129.1
			c-11.3,0-20.4-8.8-20.9-20.1L93,72.3h326L403.8,467.8z"/>
	</g>
</g>
<g>
	<g>
		<path class="st0" d="M182.6,181.6c-0.1-6.6-5.5-11.8-12-11.8c-0.1,0-0.2,0-0.2,0c-6.7,0.1-11.9,5.6-11.8,12.3l3.8,196.6
			c0.1,6.6,5.5,11.8,12,11.8c0.1,0,0.2,0,0.2,0c6.7-0.1,11.9-5.6,11.8-12.3L182.6,181.6z"/>
	</g>
</g>
<g>
	<g>
		<path class="st0" d="M256,169.8c-6.7,0-12,5.4-12,12v196.6c0,6.7,5.4,12,12,12c6.7,0,12-5.4,12-12V181.8
			C268,175.1,262.7,169.8,256,169.8z"/>
	</g>
</g>
<g>
	<g>
		<path class="st0" d="M341.6,169.8c-6.6-0.1-12.2,5.2-12.3,11.8l-3.8,196.6c-0.1,6.7,5.2,12.1,11.8,12.3c0.1,0,0.2,0,0.2,0
			c6.5,0,11.9-5.2,12-11.8l3.8-196.6C353.6,175.4,348.3,169.9,341.6,169.8z"/>
	</g>
</g>
</svg>
