<?xml version="1.0" encoding="utf-8"?>
<!-- Generator: Adobe Illustrator 22.1.0, SVG Export Plug-In . SVG Version: 6.00 Build 0)  -->
<svg version="1.1" id="Layer_1" xmlns="http://www.w3.org/2000/svg" xmlns:xlink="http://www.w3.org/1999/xlink" x="0px" y="0px"
	 viewBox="0 0 250 70" style="enable-background:new 0 0 250 70;" xml:space="preserve">
<style type="text/css">
	.st0{fill:#FFFFFF;}
</style>
<title>Artboard 1</title>
<path class="st0" d="M27.2,54.9c-3.3,0-6.5-0.6-9.5-1.8c-3-1.1-5.7-2.9-8-5.1c-2.4-2.3-4.2-5-5.5-8.1c-1.4-3.5-2.1-7.2-2-10.9
	c-0.1-3.7,0.7-7.4,2.1-10.9c1.3-3,3.2-5.8,5.6-8.1c2.3-2.2,5-3.9,8-5.1c3-1.2,6.1-1.8,9.3-1.8c2.9,0,5.7,0.4,8.5,1.3
	c2.4,0.8,4.6,2,6.5,3.5c1.8,1.4,3.4,3.2,4.6,5.1c1.2,1.9,2.1,4,2.7,6.2l-7.9,2.6c-0.4-1.5-0.9-2.9-1.7-4.2c-0.7-1.3-1.7-2.5-2.9-3.5
	c-1.3-1-2.7-1.8-4.2-2.3c-3.8-1.2-7.9-1.1-11.6,0.3c-2,0.8-3.7,1.9-5.2,3.4c-1.6,1.6-2.9,3.5-3.7,5.6c-1,2.5-1.5,5.2-1.4,7.9
	c0,2.6,0.4,5.2,1.4,7.7c0.8,2.1,2.1,4,3.7,5.6c1.5,1.5,3.3,2.6,5.3,3.4c2,0.8,4,1.2,6.1,1.2c1.9,0,3.8-0.3,5.6-0.9
	c1.6-0.6,3-1.4,4.3-2.5c1.2-1,2.2-2.2,3-3.5c0.8-1.3,1.4-2.6,1.8-4.1l7.7,2.5c-0.6,2.2-1.5,4.2-2.7,6.1c-1.2,2-2.8,3.8-4.7,5.2
	c-2,1.6-4.2,2.8-6.6,3.7C33,54.5,30.2,54.9,27.2,54.9z"/>
<path class="st0" d="M67.8,18.7c2.4,0,4.8,0.4,7.1,1.4c4.3,1.8,7.6,5.2,9.3,9.5c0.9,2.3,1.4,4.7,1.3,7.2c0,2.5-0.4,4.9-1.3,7.2
	c-1.7,4.3-5,7.7-9.3,9.5c-4.5,1.8-9.6,1.8-14.1,0c-2.1-0.9-4-2.2-5.6-3.8c-1.6-1.7-2.8-3.6-3.7-5.7c-0.9-2.3-1.4-4.8-1.3-7.2
	c0-2.5,0.4-4.9,1.3-7.2c0.8-2.1,2.1-4.1,3.7-5.7c1.6-1.6,3.5-2.9,5.6-3.8C63,19.1,65.4,18.7,67.8,18.7z M67.8,47.6
	c1.2,0,2.5-0.2,3.6-0.7c1.1-0.5,2.2-1.2,3-2.1c0.9-1,1.6-2.1,2.1-3.4c0.5-1.5,0.8-3.1,0.8-4.7c0-1.6-0.2-3.2-0.8-4.7
	c-0.5-1.3-1.2-2.4-2.1-3.4c-0.8-0.9-1.9-1.6-3-2c-2.3-0.9-4.9-0.9-7.2,0c-1.1,0.4-2.2,1.1-3,2c-0.9,1-1.6,2.1-2.1,3.4
	c-0.6,1.5-0.8,3.1-0.8,4.7c0,1.6,0.2,3.2,0.8,4.7c0.5,1.3,1.2,2.4,2.1,3.4c0.8,0.9,1.9,1.6,3,2.1C65.3,47.4,66.5,47.6,67.8,47.6z"/>
<path class="st0" d="M88.6,7.8c0-1.4,0.5-2.8,1.5-3.8c1-1,2.3-1.6,3.7-1.5c2.9,0,5.3,2.3,5.3,5.2c0,0,0,0.1,0,0.1
	c0,1.4-0.5,2.8-1.5,3.8c-1,1-2.4,1.5-3.8,1.5c-1.4,0-2.7-0.5-3.7-1.5C89.1,10.5,88.5,9.2,88.6,7.8z M89.8,53.8V19.8h8v34.1H89.8z"/>
<path class="st0" d="M113,53.8h-8.1V19.8h7.9v4.5c1-1.8,2.6-3.3,4.4-4.2c3.5-1.6,7.5-1.7,11.1-0.2c1.5,0.7,2.8,1.7,3.8,2.9
	c1,1.3,1.8,2.7,2.3,4.3c0.5,1.7,0.8,3.5,0.8,5.2v21.6h-8.1V33.7c0.1-1.9-0.5-3.8-1.6-5.4c-1-1.5-2.9-2.2-5.4-2.2
	c-2-0.1-4,0.7-5.3,2.4c-1.2,1.6-1.8,3.7-1.8,5.7V53.8z"/>
<path class="st0" d="M167.3,18.2c-0.2-0.9-0.4-1.7-0.8-2.5c-0.4-0.9-1-1.8-1.8-2.5c-0.9-0.8-1.8-1.4-2.9-1.9
	c-1.4-0.5-2.8-0.8-4.3-0.8c-1.2,0-2.4,0.2-3.5,0.6c-1,0.4-1.9,0.9-2.7,1.6c-0.7,0.6-1.3,1.4-1.8,2.2c-1.1,2.2-0.8,4.9,0.8,6.8
	c1.2,1.2,2.7,2,4.4,2.3l7.1,1.5c4.4,0.9,7.7,2.6,10,5.2c2.3,2.5,3.5,5.7,3.4,9.1c0,4-1.7,7.7-4.6,10.4c-1.6,1.5-3.5,2.6-5.5,3.4
	c-2.4,0.9-5,1.3-7.5,1.3c-2.8,0.1-5.6-0.4-8.2-1.4c-2.1-0.8-4.1-2-5.8-3.5c-1.5-1.4-2.7-3.1-3.6-5c-0.8-1.7-1.3-3.5-1.5-5.4l7.8-2.2
	c0.1,1.3,0.5,2.6,1,3.8c0.5,1.2,1.3,2.3,2.2,3.2c1,0.9,2.2,1.7,3.5,2.2c1.5,0.6,3.1,0.9,4.7,0.8c3,0,5.2-0.7,6.8-2
	c1.5-1.2,2.3-3,2.3-4.9c0-1.6-0.6-3.1-1.7-4.2c-1.4-1.3-3.1-2.2-4.9-2.5l-7-1.5c-3.5-0.6-6.6-2.3-9.1-4.8c-2.3-2.5-3.6-5.8-3.5-9.2
	c0-2,0.4-4,1.3-5.8c0.9-1.8,2.1-3.5,3.6-4.8c1.6-1.4,3.4-2.5,5.4-3.3c2.1-0.8,4.3-1.2,6.5-1.2c2.5-0.1,5.1,0.3,7.5,1.2
	c1.9,0.7,3.6,1.7,5.1,3c1.3,1.2,2.4,2.5,3.2,4.1c0.7,1.4,1.2,2.8,1.5,4.3L167.3,18.2z"/>
<path class="st0" d="M178.4,67.1V19.8h7.8v4.6c1-1.6,2.4-2.9,4.1-3.8c2.1-1.1,4.4-1.6,6.8-1.6c2.3,0,4.6,0.4,6.7,1.4
	c1.9,0.9,3.6,2.1,4.9,3.7c1.4,1.7,2.4,3.6,3,5.6c0.7,2.3,1,4.6,1,7c0,2.4-0.4,4.8-1.1,7.1c-0.7,2.1-1.8,4-3.2,5.7
	c-1.4,1.6-3.1,2.9-5.1,3.8c-2.1,0.9-4.3,1.4-6.6,1.4c-2.2,0.1-4.4-0.4-6.4-1.4c-1.6-0.8-3-1.9-4-3.3v17.2H178.4z M204.8,36.8
	c0.1-2.8-0.8-5.5-2.5-7.7c-1.7-1.9-4.1-3-6.6-2.9c-1.3,0-2.5,0.2-3.7,0.8c-1.1,0.5-2.1,1.2-2.9,2.1c-0.8,1-1.5,2.1-1.9,3.3
	c-0.5,1.4-0.7,2.9-0.7,4.3c-0.1,2.8,0.8,5.6,2.6,7.8c3.4,3.6,9.1,3.9,12.7,0.5c0.2-0.2,0.3-0.3,0.5-0.5
	C204,42.4,204.9,39.6,204.8,36.8L204.8,36.8z"/>
<path class="st0" d="M217.4,67.6l8.2-17.8l-14.6-30h9.2l9.8,21.6l9.2-21.6h8.6l-21.7,47.9L217.4,67.6z"/>
</svg>
