<?xml version="1.0" encoding="utf-8"?>
<!-- Generator: Adobe Illustrator 22.1.0, SVG Export Plug-In . SVG Version: 6.00 Build 0)  -->
<svg version="1.1" id="Capa_1" xmlns="http://www.w3.org/2000/svg" xmlns:xlink="http://www.w3.org/1999/xlink" x="0px" y="0px"
	 viewBox="0 0 512 512" style="enable-background:new 0 0 512 512;" xml:space="preserve">
<style type="text/css">
	.st0{fill:#50556B;}
</style>
<g>
	<g>
		<path class="st0" d="M442.9,378.1c-10.8-9.9-17-23.9-17-38.5V240c0-5.5-4.5-10-10-10s-10,4.5-10,10v99.6
			c0,20.2,8.6,39.6,23.5,53.3c5.4,4.9,8.5,11.9,8.5,19.2c0,14.3-11.7,26-26,26h-312c-14.3,0-26-11.7-26-26c0-7.3,3.1-14.3,8.5-19.2
			c15-13.7,23.5-33.1,23.5-53.3V224c0-82.7,67.3-150,150-150c22.7,0,45.2,5.2,65.4,15c-7.1,11.3-11.1,24.7-11.1,39
			c0,40.8,33.2,74,74,74s74-33.2,74-74s-33.2-74-74-74c-19.1,0-36.6,7.3-49.7,19.2C319.5,65.5,303.5,60,287,56.9
			c3.7-5.8,5.8-12.6,5.8-19.9c0-20.4-16.6-37-37-37s-37,16.6-37,37c0,7.3,2.1,14.1,5.8,19.9C145.8,71.6,85.8,140.9,85.8,224v115.6
			c0,14.6-6.2,28.6-17,38.5c-9.5,8.7-15,21.1-15,33.9c0,25.4,20.6,46,46,46h92.8c4.8,30.6,31.3,54,63.2,54s58.4-23.4,63.2-54h92.8
			c25.4,0,46-20.6,46-46C457.8,399.1,452.4,386.7,442.9,378.1z M384.1,74c29.8,0,54,24.2,54,54s-24.2,54-54,54s-54-24.2-54-54
			S354.4,74,384.1,74z M255.8,20c9.4,0,17,7.6,17,17c0,9.4-7.6,17-17,17s-17-7.6-17-17C238.8,27.6,246.5,20,255.8,20z M255.8,492
			c-20.8,0-38.3-14.5-42.8-34h85.7C294.1,477.5,276.7,492,255.8,492z"/>
	</g>
</g>
<g>
	<g>
		<path class="st0" d="M143.8,213.8c-5.5,0-10,4.5-10,10v0.2c0,5.5,4.5,10,10,10s10-4.5,10-10v-0.2
			C153.8,218.3,149.4,213.8,143.8,213.8z"/>
	</g>
</g>
<g>
	<g>
		<path class="st0" d="M255.8,102c-49.1,0-93.2,29.2-112.3,74.4c-2.2,5.1,0.2,11,5.3,13.1c1.3,0.5,2.6,0.8,3.9,0.8
			c3.9,0,7.6-2.3,9.2-6.1c16-37.8,52.9-62.2,93.9-62.2c5.5,0,10-4.5,10-10C265.8,106.5,261.4,102,255.8,102z"/>
	</g>
</g>
<g>
	<g>
		<path class="st0" d="M387.7,95.6c-3.7-1.5-8-0.7-10.9,2.2l-11.5,11.5c-3.9,3.9-3.9,10.2,0,14.1c2.3,2.3,5.5,3.3,8.6,2.8v18.1
			c0,5.5,4.5,10,10,10s10-4.5,10-10v-39.5C393.8,100.8,391.4,97.1,387.7,95.6z"/>
	</g>
</g>
</svg>
