<?xml version="1.0" standalone="no"?>
<!DOCTYPE svg PUBLIC "-//W3C//DTD SVG 20010904//EN"
 "http://www.w3.org/TR/2001/REC-SVG-20010904/DTD/svg10.dtd">
<svg version="1.0" xmlns="http://www.w3.org/2000/svg"
 width="800.000000pt" height="800.000000pt" viewBox="0 0 800.000000 800.000000"
 preserveAspectRatio="xMidYMid meet">
<metadata>
Created by potrace 1.11, written by Peter Selinger 2001-2013
</metadata>
<g transform="translate(0.000000,800.000000) scale(0.100000,-0.100000)"
fill="#000000" stroke="none">
<path d="M3787 7874 c-1 -1 -47 -5 -102 -8 -99 -7 -153 -12 -210 -21 -16 -3
-48 -7 -70 -10 -435 -63 -952 -239 -1320 -451 -33 -19 -68 -37 -77 -40 -10 -4
-18 -10 -18 -15 0 -5 -5 -9 -11 -9 -23 0 -354 -234 -434 -307 -11 -10 -38 -33
-60 -52 -330 -279 -657 -711 -868 -1145 -100 -204 -160 -361 -245 -636 -20
-63 -76 -295 -86 -355 -3 -16 -7 -39 -10 -51 -2 -12 -7 -45 -11 -75 -4 -30 -8
-56 -10 -59 -2 -3 -6 -37 -10 -75 -4 -39 -9 -78 -11 -88 -28 -151 -24 -781 6
-982 5 -33 12 -85 15 -115 12 -102 74 -394 114 -535 162 -569 407 -1036 767
-1460 337 -398 780 -726 1269 -940 22 -9 49 -21 60 -26 52 -23 209 -79 290
-103 109 -33 119 -36 125 -35 3 0 19 -5 35 -12 30 -12 65 -20 235 -58 100 -22
125 -26 199 -37 25 -4 55 -8 66 -10 11 -2 45 -6 75 -10 30 -3 66 -7 80 -9 139
-24 692 -24 840 -1 14 3 48 7 75 10 85 9 209 28 216 31 3 2 28 7 55 11 27 3
59 10 71 15 13 5 23 7 23 5 0 -3 171 39 235 58 6 1 30 8 55 15 73 20 283 92
312 107 15 8 31 15 35 15 5 0 28 9 52 20 24 10 45 19 47 19 4 0 243 117 264
130 105 62 197 116 205 120 7 3 68 45 138 93 222 156 458 365 637 566 36 40
70 78 76 84 31 35 184 242 235 320 231 348 391 710 510 1151 16 61 31 119 34
130 17 81 45 228 49 261 4 23 8 50 10 61 2 11 7 47 11 79 4 33 8 71 10 84 27
167 27 705 0 946 -10 92 -17 153 -21 175 -3 14 -7 39 -9 55 -3 17 -9 53 -15
80 -5 28 -12 65 -15 83 -24 146 -138 522 -212 702 -229 557 -584 1052 -1008
1406 -38 33 -76 65 -84 72 -60 57 -283 212 -446 309 -367 220 -869 400 -1305
468 -113 18 -131 20 -230 30 -36 3 -85 9 -110 12 -42 5 -517 12 -523 7z m382
-1589 c52 -3 97 -7 100 -9 3 -2 29 -7 56 -10 78 -9 181 -33 290 -68 55 -17
105 -32 111 -34 12 -2 34 -12 149 -64 421 -192 789 -600 968 -1070 34 -89 85
-242 92 -279 2 -9 10 -47 19 -85 44 -188 68 -416 69 -651 0 -115 -10 -345 -17
-381 -2 -12 -7 -45 -11 -75 -4 -30 -15 -97 -26 -149 -11 -52 -22 -107 -24
-121 -7 -39 -69 -234 -103 -324 -132 -350 -353 -656 -623 -867 -273 -212 -548
-331 -914 -393 -112 -19 -361 -25 -510 -12 -368 31 -760 188 -1040 417 -126
103 -219 202 -327 350 -43 58 -82 110 -88 117 -5 7 -10 15 -10 17 0 3 -18 35
-40 71 -117 192 -248 546 -285 775 -3 19 -8 42 -10 50 -2 8 -7 42 -11 75 -3
33 -8 63 -10 66 -7 12 -17 231 -18 374 0 142 9 314 19 380 3 17 7 44 10 60 2
17 7 48 10 70 17 113 88 367 142 505 22 56 102 224 144 300 99 179 319 443
459 550 25 19 47 37 50 41 16 19 175 117 258 159 134 67 341 144 404 150 4 0
26 7 48 15 22 8 43 14 45 14 6 -1 133 19 175 27 14 3 79 8 145 11 66 3 121 6
122 7 2 2 58 -1 182 -9z"/>
</g>
</svg>
