<?xml version="1.0" standalone="no"?>
<!DOCTYPE svg PUBLIC "-//W3C//DTD SVG 20010904//EN"
 "http://www.w3.org/TR/2001/REC-SVG-20010904/DTD/svg10.dtd">
<svg version="1.0" xmlns="http://www.w3.org/2000/svg"
 width="100.000000pt" height="100.000000pt" viewBox="0 0 100.000000 100.000000"
 preserveAspectRatio="xMidYMid meet">
<metadata>
Created by potrace 1.11, written by Peter Selinger 2001-2013
</metadata>
<g transform="translate(0.000000,100.000000) scale(0.100000,-0.100000)"
fill="#000000" stroke="none">
<path d="M477 984 c-1 -1 -24 -4 -52 -8 -230 -28 -395 -226 -396 -476 0 -278
202 -485 471 -482 138 2 246 45 332 134 95 97 139 209 139 353 -1 85 -29 205
-56 235 -8 9 -15 22 -15 28 0 20 -113 127 -165 156 -56 31 -146 57 -211 60
-24 1 -45 1 -47 0z m142 -229 c85 -46 127 -126 130 -246 3 -91 -24 -172 -74
-223 -53 -55 -90 -70 -176 -70 -67 -1 -81 2 -124 29 -192 119 -165 461 41 527
67 21 144 15 203 -17z"/>
</g>
</svg>
